<svg width="521" height="277" viewBox="0 0 521 277" fill="none" xmlns="http://www.w3.org/2000/svg">
<g clip-path="url(#clip0_36_63)">
<path d="M470.686 225.307H74.549C69.4849 225.301 64.6298 223.177 61.0489 219.4C57.468 215.623 55.4537 210.503 55.4481 205.162V46.6285C55.4538 41.2876 57.4681 36.1671 61.0489 32.3905C64.6298 28.6138 69.4849 26.4895 74.549 26.4834H470.686C475.75 26.4895 480.605 28.6138 484.186 32.3905C487.767 36.1671 489.781 41.2876 489.787 46.6285V205.162C489.781 210.503 487.767 215.623 484.186 219.4C480.605 223.177 475.75 225.301 470.686 225.307Z" fill="white"/>
<path d="M470.686 225.307H74.549C69.4849 225.301 64.6298 223.177 61.0489 219.4C57.468 215.623 55.4537 210.503 55.4481 205.162V46.6285C55.4538 41.2876 57.4681 36.1671 61.0489 32.3905C64.6298 28.6138 69.4849 26.4895 74.549 26.4834H470.686C475.75 26.4895 480.605 28.6138 484.186 32.3905C487.767 36.1671 489.781 41.2876 489.787 46.6285V205.162C489.781 210.503 487.767 215.623 484.186 219.4C480.605 223.177 475.75 225.301 470.686 225.307ZM74.549 28.2351C69.9236 28.2351 65.4877 30.173 62.2171 33.6224C58.9464 37.0719 57.109 41.7503 57.109 46.6285V205.162C57.109 207.577 57.5601 209.969 58.4365 212.201C59.313 214.432 60.5976 216.46 62.2171 218.168C63.8365 219.876 65.7591 221.231 67.875 222.155C69.9909 223.079 72.2587 223.555 74.549 223.555H470.686C472.976 223.555 475.244 223.079 477.36 222.155C479.476 221.231 481.398 219.876 483.018 218.168C484.637 216.46 485.922 214.432 486.798 212.201C487.675 209.969 488.126 207.577 488.126 205.162V145.386C488.126 114.316 476.423 84.518 455.592 62.5479C434.76 40.5778 406.507 28.2351 377.047 28.2351H74.549Z" fill="#E6E6E6"/>
<path d="M43.2048 259.056C43.3668 257.882 42.2006 256.731 40.6 256.485C38.9994 256.24 37.5705 256.992 37.4085 258.167C37.2465 259.341 38.4127 260.492 40.0133 260.738C41.6139 260.983 43.0428 260.231 43.2048 259.056Z" fill="white"/>
<path d="M62.2619 257.095C62.4239 255.921 61.2577 254.77 59.6571 254.524C58.0565 254.278 56.6276 255.031 56.4656 256.206C56.3036 257.38 57.4698 258.531 59.0704 258.777C60.671 259.022 62.0999 258.269 62.2619 257.095Z" fill="#3F3D56"/>
<path d="M37.9865 242.785C38.1485 241.61 36.9823 240.459 35.3817 240.214C33.7811 239.968 32.3522 240.721 32.1902 241.895C32.0282 243.07 33.1944 244.221 34.795 244.466C36.3956 244.712 37.8245 243.959 37.9865 242.785Z" fill="#FF6584"/>
<path d="M29.7058 236.12C29.7135 235.042 29.1433 234.163 28.4322 234.157C27.7211 234.152 27.1384 235.021 27.1306 236.099C27.1229 237.177 27.6931 238.056 28.4042 238.061C29.1153 238.067 29.698 237.198 29.7058 236.12Z" fill="#E6E6E6"/>
<path d="M26.8976 223.705C26.9053 222.627 26.3351 221.749 25.624 221.743C24.9129 221.737 24.3302 222.607 24.3225 223.685C24.3147 224.763 24.8849 225.641 25.596 225.647C26.3071 225.653 26.8899 224.783 26.8976 223.705Z" fill="#3F3D56"/>
<path d="M48.7348 245.554C48.7425 244.476 48.1723 243.597 47.4612 243.591C46.7501 243.586 46.1674 244.455 46.1597 245.533C46.152 246.611 46.7221 247.49 47.4332 247.496C48.1444 247.501 48.7271 246.632 48.7348 245.554Z" fill="#E6E6E6"/>
<path d="M39.5256 250.403C39.5334 249.325 38.9632 248.446 38.2521 248.441C37.541 248.435 36.9582 249.304 36.9505 250.383C36.9428 251.461 37.513 252.339 38.2241 252.345C38.9352 252.351 39.5179 251.481 39.5256 250.403Z" fill="#FF6584"/>
<path d="M52.3451 259.366C52.3529 258.288 51.7826 257.409 51.0715 257.404C50.3604 257.398 49.7777 258.267 49.77 259.346C49.7622 260.424 50.3324 261.302 51.0435 261.308C51.7546 261.314 52.3374 260.444 52.3451 259.366Z" fill="#3F3D56"/>
<path d="M503.602 5.88758C503.954 4.42127 502.62 2.79958 500.621 2.2654C498.623 1.73123 496.717 2.48685 496.365 3.95317C496.012 5.41948 497.347 7.04122 499.345 7.57539C501.344 8.10956 503.25 7.35389 503.602 5.88758Z" fill="white"/>
<path d="M479.196 5.72171C479.548 4.2554 478.213 2.63367 476.215 2.09949C474.216 1.56532 472.31 2.32099 471.958 3.7873C471.606 5.25362 472.94 6.87531 474.939 7.40948C476.937 7.94365 478.843 7.18802 479.196 5.72171Z" fill="#3F3D56"/>
<path d="M508.182 27.2435C508.534 25.7772 507.2 24.1555 505.201 23.6213C503.203 23.0871 501.297 23.8428 500.945 25.3091C500.592 26.7754 501.927 28.3971 503.925 28.9313C505.924 29.4655 507.83 28.7098 508.182 27.2435Z" fill="#FF6584"/>
<path d="M513.872 35.2962C514.016 33.9305 513.403 32.7373 512.502 32.6311C511.602 32.5249 510.754 33.546 510.609 34.9118C510.465 36.2776 511.078 37.4708 511.978 37.5769C512.879 37.6831 513.727 36.662 513.872 35.2962Z" fill="#E6E6E6"/>
<path d="M515.882 51.4237C516.026 50.0579 515.413 48.8647 514.513 48.7585C513.612 48.6524 512.764 49.6735 512.619 51.0392C512.475 52.405 513.088 53.5982 513.989 53.7044C514.889 53.8106 515.737 52.7895 515.882 51.4237Z" fill="#3F3D56"/>
<path d="M490.926 20.6869C491.071 19.3212 490.458 18.1279 489.557 18.0218C488.656 17.9156 487.809 18.9367 487.664 20.3025C487.519 21.6682 488.132 22.8615 489.033 22.9676C489.934 23.0738 490.782 22.0527 490.926 20.6869Z" fill="#E6E6E6"/>
<path d="M503.209 15.8204C503.353 14.4547 502.74 13.2615 501.84 13.1553C500.939 13.0491 500.091 14.0702 499.946 15.436C499.802 16.8018 500.415 17.995 501.316 18.1011C502.216 18.2073 503.064 17.1862 503.209 15.8204Z" fill="#FF6584"/>
<path d="M488.077 2.6727C488.222 1.30695 487.609 0.113722 486.708 0.00756036C485.807 -0.0986011 484.96 0.922502 484.815 2.28826C484.67 3.65402 485.283 4.84725 486.184 4.95341C487.085 5.05957 487.933 4.03846 488.077 2.6727Z" fill="#3F3D56"/>
<path d="M213.895 122.669C213.917 138.534 208.36 153.845 198.299 165.639V165.648C196.876 167.316 195.374 168.907 193.798 170.413C192.185 171.954 190.493 173.401 188.732 174.749C187.503 175.694 186.24 176.588 184.945 177.429C183.408 178.436 181.828 179.367 180.203 180.223C178.999 180.862 177.769 181.458 176.515 182.01C169.03 185.327 160.991 187.034 152.872 187.028C148.286 187.034 143.714 186.493 139.244 185.417C137.176 184.921 135.136 184.307 133.131 183.577C132.359 183.306 131.587 183.008 130.823 182.693C126.19 180.804 121.797 178.318 117.743 175.292C109.174 168.929 102.303 160.346 97.7927 150.37C93.282 140.394 91.2832 129.361 91.9889 118.334C92.6946 107.307 96.081 96.6571 101.822 87.4109C107.563 78.1647 115.465 70.6335 124.766 65.5429C134.068 60.4523 144.456 57.9738 154.929 58.3462C165.402 58.7187 175.608 61.9295 184.564 67.6693C193.519 73.4091 200.922 81.4845 206.059 91.1176C211.197 100.751 213.895 111.617 213.895 122.669V122.669Z" fill="#F2F2F2"/>
<path d="M396.533 74.8272H291.063C290.183 74.8259 289.339 74.4561 288.717 73.7993C288.095 73.1424 287.746 72.252 287.746 71.3237C287.746 70.3954 288.095 69.5051 288.717 68.8482C289.339 68.1913 290.183 67.8216 291.063 67.8202H396.533C397.414 67.8202 398.259 68.1894 398.882 68.8464C399.505 69.5034 399.855 70.3945 399.855 71.3237C399.855 72.2529 399.505 73.1441 398.882 73.8011C398.259 74.4581 397.414 74.8272 396.533 74.8272V74.8272Z" fill="#3D5A80"/>
<path d="M396.533 122.124H291.063C290.183 122.123 289.339 121.753 288.717 121.097C288.095 120.44 287.746 119.549 287.746 118.621C287.746 117.693 288.095 116.802 288.717 116.145C289.339 115.489 290.183 115.119 291.063 115.117H396.533C397.413 115.119 398.257 115.489 398.879 116.145C399.501 116.802 399.85 117.693 399.85 118.621C399.85 119.549 399.501 120.44 398.879 121.097C398.257 121.753 397.413 122.123 396.533 122.124V122.124Z" fill="#E6E6E6"/>
<path d="M396.533 169.422H291.063C290.183 169.42 289.339 169.051 288.717 168.394C288.095 167.737 287.746 166.847 287.746 165.918C287.746 164.99 288.095 164.1 288.717 163.443C289.339 162.786 290.183 162.416 291.063 162.415H396.533C397.414 162.415 398.259 162.784 398.882 163.441C399.505 164.098 399.855 164.989 399.855 165.918C399.855 166.847 399.505 167.739 398.882 168.396C398.259 169.053 397.414 169.422 396.533 169.422V169.422Z" fill="#E6E6E6"/>
<path d="M132.852 273.941C120.945 257.238 114.063 238.559 113.837 217.264C113.454 216.117 113.517 214.856 114.014 213.757C114.511 212.659 115.401 211.814 116.488 211.407L157.073 196.262C158.161 195.857 159.357 195.924 160.398 196.448C161.439 196.973 162.241 197.911 162.627 199.058L181.641 255.734C182.025 256.882 181.961 258.143 181.464 259.241C180.967 260.339 180.078 261.185 178.991 261.592L138.406 276.737C137.318 277.141 136.122 277.074 135.08 276.55C134.039 276.026 133.238 275.088 132.852 273.941V273.941Z" fill="#E6E6E6"/>
<path d="M130.222 255.661C123.06 248.024 119.995 234.404 117.998 219.224C117.638 218.149 117.698 216.968 118.163 215.939C118.629 214.911 119.462 214.119 120.48 213.738L155.359 200.722C156.378 200.343 157.498 200.406 158.474 200.897C159.449 201.388 160.2 202.266 160.561 203.34L177.481 253.775C177.841 254.85 177.781 256.031 177.315 257.059C176.85 258.088 176.017 258.879 174.998 259.261L153.391 267.324C148.852 269.012 143.864 268.732 139.52 266.545C135.176 264.359 131.832 260.444 130.222 255.661V255.661Z" fill="white"/>
<path d="M161.028 230.51L133.858 240.738C133.644 240.819 133.417 240.854 133.19 240.842C132.963 240.83 132.74 240.771 132.535 240.668C132.329 240.566 132.145 240.421 131.993 240.244C131.84 240.066 131.722 239.858 131.646 239.632C131.57 239.407 131.536 239.167 131.547 238.928C131.559 238.688 131.615 238.454 131.712 238.237C131.809 238.02 131.946 237.826 132.115 237.665C132.283 237.504 132.48 237.38 132.694 237.299L159.864 227.071C160.297 226.908 160.773 226.933 161.187 227.14C161.602 227.348 161.922 227.721 162.076 228.176C162.231 228.632 162.207 229.134 162.01 229.572C161.814 230.01 161.46 230.347 161.028 230.51H161.028Z" fill="#6C63FF"/>
<path d="M136.644 229.059L130.667 231.309C130.453 231.39 130.226 231.426 129.998 231.414C129.771 231.402 129.548 231.343 129.343 231.241C129.137 231.138 128.953 230.994 128.8 230.816C128.648 230.638 128.53 230.43 128.453 230.204C128.377 229.978 128.343 229.739 128.355 229.499C128.366 229.259 128.422 229.025 128.52 228.808C128.617 228.591 128.754 228.397 128.923 228.236C129.092 228.075 129.289 227.951 129.503 227.871L135.48 225.62C135.695 225.539 135.922 225.504 136.149 225.516C136.376 225.527 136.599 225.586 136.805 225.689C137.01 225.792 137.195 225.936 137.347 226.114C137.5 226.291 137.618 226.499 137.694 226.725C137.771 226.951 137.804 227.191 137.793 227.43C137.781 227.67 137.725 227.905 137.628 228.122C137.53 228.338 137.393 228.533 137.225 228.694C137.056 228.854 136.859 228.978 136.644 229.059Z" fill="#6C63FF"/>
<path d="M166.144 245.627L138.974 255.855C138.542 256.017 138.067 255.992 137.652 255.784C137.238 255.577 136.918 255.205 136.764 254.749C136.61 254.293 136.633 253.792 136.83 253.354C137.026 252.917 137.379 252.58 137.811 252.417L164.981 242.188C165.413 242.026 165.888 242.051 166.303 242.259C166.717 242.466 167.037 242.839 167.191 243.294C167.345 243.75 167.322 244.252 167.125 244.689C166.929 245.126 166.576 245.464 166.144 245.627Z" fill="#6C63FF"/>
<path d="M163.586 238.068L136.416 248.297C135.984 248.459 135.508 248.434 135.093 248.227C134.678 248.02 134.358 247.647 134.204 247.191C134.05 246.735 134.074 246.233 134.27 245.795C134.467 245.358 134.82 245.021 135.252 244.858L162.422 234.629C162.637 234.549 162.864 234.513 163.091 234.525C163.318 234.537 163.541 234.595 163.746 234.698C163.952 234.801 164.136 234.945 164.289 235.123C164.442 235.301 164.56 235.509 164.636 235.734C164.713 235.96 164.746 236.2 164.735 236.44C164.723 236.679 164.667 236.914 164.57 237.131C164.472 237.348 164.335 237.542 164.166 237.703C163.998 237.864 163.8 237.988 163.586 238.068Z" fill="#6C63FF"/>
<path d="M138.914 93.5516C139.799 101.08 144.746 107.288 151.939 107.288C155.393 107.288 158.706 105.841 161.149 103.265C163.591 100.689 164.963 97.1947 164.963 93.5516C164.963 85.9651 159.101 80.5165 151.939 79.8151C144.339 79.0709 137.778 83.8855 138.914 93.5516Z" fill="#2F2E41"/>
<path d="M163.278 186.091C155.302 187.537 147.135 187.308 139.244 185.417C142.989 183.236 154.35 184.576 163.278 186.091Z" fill="#2F2E41"/>
<path d="M112.585 210.253L118.841 194.307L123.77 197.195L120.794 213.416C121.092 214.444 121.112 215.539 120.853 216.578C120.593 217.617 120.064 218.56 119.324 219.299C118.585 220.038 117.664 220.546 116.666 220.763C115.669 220.981 114.633 220.901 113.676 220.533C112.719 220.164 111.878 219.521 111.249 218.676C110.619 217.831 110.225 216.817 110.112 215.749C109.999 214.681 110.17 213.601 110.607 212.63C111.044 211.659 111.729 210.836 112.585 210.253Z" fill="#FFB6B6"/>
<path d="M177.304 167.102V167.111C177.08 172.664 176.773 177.945 176.515 182.01C169.03 185.327 160.991 187.034 152.872 187.028C148.286 187.034 143.714 186.493 139.244 185.417C137.176 184.921 135.136 184.307 133.131 183.577C133.41 183.387 133.712 183.237 134.028 183.131C137.018 182.062 134.062 181.09 134.086 180.074C134.178 176.36 135.149 171.902 136.403 167.628L130.823 182.693L127.916 190.523C127.916 190.523 128.016 197.285 126.172 195.218C124.32 193.151 124.453 199.842 124.453 199.842C123.877 200.275 123.382 200.815 122.991 201.436C122.827 201.716 122.765 202.049 122.817 202.374V202.382C122.9 202.637 123.065 202.854 123.282 202.995C124.536 203.889 122.734 206.254 121.937 207.191C121.721 207.445 121.579 207.594 121.579 207.594L113.914 207.016V206.858C113.947 205.903 114.155 200.876 115.343 199.676C116.646 198.353 116.007 196.26 116.007 196.26C116.007 196.26 119.412 193.081 117.128 190.497C116.215 189.454 116.621 183.28 117.743 175.292C120.193 157.669 126.064 131.218 128.605 131.594C129.129 128.911 130.345 126.433 132.12 124.433C133.895 122.433 136.159 120.989 138.662 120.26L146.942 117.86L148.42 111.703H160.08L162.107 115.75L170.602 119.796L170.71 119.849L170.976 119.971L171.076 120.304C171.076 120.304 171.067 120.313 171.076 120.313L175.801 135.965C177.927 138.54 177.844 153.587 177.304 167.102Z" fill="#3D5A80"/>
<path d="M197.159 198.641L189.264 183.526L194.482 181.272L204.63 193.859C205.577 194.255 206.401 194.923 207.008 195.786C207.615 196.649 207.982 197.673 208.067 198.744C208.152 199.815 207.953 200.89 207.49 201.848C207.028 202.806 206.322 203.609 205.451 204.166C204.58 204.724 203.579 205.014 202.56 205.005C201.541 204.995 200.544 204.686 199.683 204.112C198.821 203.538 198.129 202.722 197.683 201.755C197.237 200.789 197.056 199.711 197.159 198.641Z" fill="#FFB6B6"/>
<path d="M170.604 119.675C172.008 122.337 184.852 129.182 182.626 136.054C182.626 136.054 194.693 175.868 196.262 175.608C197.831 175.349 199.363 179.461 199.363 179.461C199.363 179.461 199.03 182.145 200.008 181.03C200.987 179.914 200.753 182.838 200.753 182.838C200.753 182.838 200.284 185.419 201.527 184.717C202.769 184.016 201.135 188.955 201.135 188.955L193.668 192.663L192.248 190.435C192.248 190.435 189.216 189.826 190.643 189.344C192.07 188.861 189.301 187.238 189.301 187.238C189.301 187.238 186.405 185.162 186.808 181.723C187.212 178.285 179.292 171.526 179.292 171.526C173.847 160.188 170.869 148.548 170.879 136.541L170.604 119.675Z" fill="#3D5A80"/>
<path d="M153.379 108.104C159.757 108.104 164.928 102.65 164.928 95.9228C164.928 89.1955 159.757 83.7419 153.379 83.7419C147 83.7419 141.829 89.1955 141.829 95.9228C141.829 102.65 147 108.104 153.379 108.104Z" fill="#FFB6B6"/>
<path d="M141.419 97.2499C141.785 99.8968 143.924 103.59 143.423 103.59C142.922 103.59 139.36 92.6781 142.922 91.9666C145.505 91.4505 146.083 91.9032 148.497 90.799L148.157 91.1371C149.755 92.3629 151.979 91.6073 153.802 90.8096C155.631 90.0171 157.85 89.2616 159.453 90.482C160.46 91.2481 160.886 92.5794 161.512 93.7101C162.138 94.846 163.295 95.9185 164.487 95.5698C164.952 95.3805 165.348 95.0407 165.618 94.5993C165.888 94.1579 166.018 93.6376 165.99 93.1131C165.985 92.067 164.694 91.0718 165.129 90.1333C166.418 87.352 165.258 85.4562 162.449 84.1474C161.427 83.9836 160.405 83.8163 159.383 83.6455C159.918 82.8632 160.568 82.175 161.306 81.6061C160.994 80.7619 160.454 80.0327 159.754 79.5087C158.888 79.0842 157.923 78.9372 156.978 79.086C154.864 79.2022 152.752 79.3185 150.641 79.4347C149.069 79.4051 147.509 79.7256 146.063 80.3751C144.32 81.3208 143.177 83.1647 142.346 85.0403C140.482 89.2563 140.778 92.6482 141.419 97.2499Z" fill="#2F2E41"/>
<path d="M430.333 89.2604H256.642C256.451 89.2604 256.267 89.1803 256.132 89.0377C255.997 88.8951 255.921 88.7016 255.921 88.4999C255.921 88.2981 255.997 88.1047 256.132 87.9621C256.267 87.8194 256.451 87.7393 256.642 87.7393H430.333C430.524 87.7393 430.707 87.8194 430.843 87.9621C430.978 88.1047 431.054 88.2981 431.054 88.4999C431.054 88.7016 430.978 88.8951 430.843 89.0377C430.707 89.1803 430.524 89.2604 430.333 89.2604Z" fill="#E6E6E6"/>
<path d="M430.333 136.416H256.642C256.451 136.416 256.267 136.336 256.132 136.194C255.997 136.051 255.921 135.857 255.921 135.656C255.921 135.454 255.997 135.261 256.132 135.118C256.267 134.975 256.451 134.895 256.642 134.895H430.333C430.524 134.895 430.707 134.975 430.843 135.118C430.978 135.261 431.054 135.454 431.054 135.656C431.054 135.857 430.978 136.051 430.843 136.194C430.707 136.336 430.524 136.416 430.333 136.416Z" fill="#E6E6E6"/>
<path d="M430.333 183.572H256.642C256.451 183.572 256.267 183.492 256.132 183.349C255.997 183.206 255.921 183.013 255.921 182.811C255.921 182.609 255.997 182.416 256.132 182.273C256.267 182.131 256.451 182.051 256.642 182.051H430.333C430.524 182.051 430.707 182.131 430.843 182.273C430.978 182.416 431.054 182.609 431.054 182.811C431.054 183.013 430.978 183.206 430.843 183.349C430.707 183.492 430.524 183.572 430.333 183.572Z" fill="#E6E6E6"/>
<path d="M456.185 180.557C449.827 180.557 443.677 178.162 438.844 173.803C437.232 172.348 435.515 169.818 433.739 166.283C432.606 164.007 431.972 161.491 431.882 158.922C431.793 156.353 432.251 153.795 433.222 151.437C432.286 152.442 431.25 153.338 430.132 154.11L429.567 154.506L429.535 153.792C429.513 153.327 429.502 152.864 429.502 152.416C429.502 149.772 431.398 147.089 430.524 144.645C426.839 134.345 415.149 124.109 432.091 108.168C433.658 106.693 431.564 103.745 431.564 101.514C431.564 79.6491 460.865 41.822 469.17 61.8607C479.411 86.5735 497.056 83.9302 504.873 89.0346L504.986 89.3957L504.652 89.5382C502.941 90.2965 501.139 90.802 499.297 91.0403C501.261 91.4626 503.265 91.6397 505.268 91.5678L505.578 91.5563L505.654 91.8747C506.399 95.0276 506.776 98.2648 506.775 101.514L506.774 101.865C506.767 104.333 507.253 106.775 508.201 109.032C509.149 111.288 510.537 113.309 512.275 114.961C515.02 117.601 517.214 120.815 518.716 124.399C520.218 127.982 520.996 131.856 521 135.774C521 140.409 518.013 146.494 515.507 150.782C514.872 151.875 514.01 152.801 512.987 153.492C511.964 154.183 510.806 154.621 509.6 154.773C508.457 154.925 507.297 154.81 506.201 154.437C505.105 154.063 504.1 153.44 503.258 152.612C504.444 155.127 505.99 157.435 507.841 159.455L508.183 159.827L507.758 160.087C503.678 162.596 499.04 163.917 494.318 163.916L494.041 163.915C490.578 163.877 487.143 164.569 483.937 165.949C480.731 167.329 477.818 169.37 475.369 171.952C472.876 174.661 469.895 176.818 466.6 178.296C463.306 179.773 459.765 180.542 456.185 180.557Z" fill="#E6E6E6"/>
<path d="M447.005 225.122C446.89 225.122 446.778 225.078 446.691 224.998C446.604 224.918 446.547 224.808 446.531 224.688C445.276 212.886 445.201 200.978 446.307 189.161C447.963 170.517 453.282 143.665 469.215 121.611C469.253 121.558 469.301 121.514 469.356 121.481C469.41 121.447 469.47 121.425 469.533 121.416C469.595 121.408 469.659 121.412 469.72 121.429C469.781 121.446 469.838 121.475 469.888 121.515C469.938 121.556 469.98 121.606 470.012 121.663C470.043 121.721 470.064 121.784 470.073 121.85C470.081 121.916 470.077 121.983 470.061 122.047C470.045 122.112 470.017 122.172 469.979 122.225C454.183 144.088 448.907 170.744 447.263 189.255C446.162 200.994 446.236 212.822 447.481 224.545C447.491 224.617 447.485 224.69 447.466 224.759C447.446 224.829 447.413 224.893 447.368 224.948C447.323 225.003 447.267 225.047 447.205 225.077C447.142 225.107 447.074 225.122 447.005 225.122V225.122Z" fill="#3F3D56"/>
<path d="M460.008 152.719C459.906 152.719 459.808 152.685 459.725 152.622C459.643 152.56 459.582 152.471 459.551 152.369C459.52 152.268 459.52 152.158 459.551 152.057C459.582 151.955 459.643 151.866 459.725 151.803C464.265 148.562 469.17 145.929 474.326 143.965C482.381 140.854 494.631 138.034 507.241 142.267C507.301 142.287 507.357 142.32 507.405 142.363C507.454 142.406 507.493 142.458 507.522 142.517C507.551 142.576 507.569 142.641 507.574 142.707C507.579 142.773 507.572 142.84 507.553 142.903C507.534 142.966 507.503 143.025 507.463 143.076C507.422 143.127 507.372 143.169 507.316 143.199C507.26 143.23 507.199 143.248 507.137 143.254C507.074 143.259 507.01 143.252 506.95 143.232C494.598 139.086 482.571 141.859 474.656 144.915C469.583 146.846 464.757 149.435 460.289 152.622C460.208 152.685 460.109 152.719 460.008 152.719V152.719Z" fill="#3F3D56"/>
<path d="M438.045 95.0288C438.038 94.9222 438.063 94.8158 438.116 94.725C438.17 94.6342 438.249 94.5635 438.343 94.5232C438.437 94.4829 438.54 94.475 438.639 94.5006C438.737 94.5262 438.826 94.584 438.891 94.6657C442.283 99.2081 445.126 104.178 447.356 109.46C450.877 117.71 454.426 130.392 451.331 143.963C451.316 144.027 451.29 144.089 451.253 144.142C451.216 144.196 451.169 144.242 451.115 144.277C451.062 144.312 451.002 144.335 450.939 144.345C450.877 144.356 450.813 144.353 450.752 144.338C450.691 144.322 450.633 144.294 450.582 144.255C450.531 144.216 450.488 144.166 450.455 144.109C450.422 144.052 450.4 143.989 450.39 143.924C450.38 143.858 450.383 143.791 450.398 143.726C453.429 130.434 449.941 117.981 446.48 109.876C444.289 104.678 441.493 99.788 438.157 95.3182C438.092 95.2366 438.053 95.1353 438.045 95.0288V95.0288Z" fill="#3F3D56"/>
<path d="M45.6307 170.432C43.1819 167.85 40.2691 165.809 37.0629 164.428C33.8568 163.048 30.4217 162.357 26.959 162.394L26.6824 162.395C21.9598 162.397 17.3215 161.076 13.2419 158.567L12.8173 158.306L13.1593 157.935C15.0104 155.915 16.556 153.607 17.7421 151.092C16.8998 151.92 15.895 152.543 14.7991 152.916C13.7031 153.29 12.5428 153.404 11.4001 153.252C10.1938 153.101 9.03562 152.663 8.01257 151.972C6.98953 151.281 6.12814 150.354 5.49303 149.262C2.9871 144.974 0 138.889 0 134.254C0.00389985 130.336 0.781731 126.462 2.28393 122.878C3.78612 119.295 5.97973 116.081 8.7249 113.441C10.4628 111.788 11.851 109.768 12.7989 107.511C13.7468 105.255 14.2331 102.813 14.2262 100.345L14.2248 99.9937C14.2243 96.7444 14.6008 93.5072 15.3459 90.3544L15.4215 90.036L15.7321 90.0474C17.735 90.1193 19.739 89.9422 21.7026 89.5199C19.8607 89.2816 18.0589 88.7762 16.3481 88.0179L16.014 87.8753L16.1274 87.5142C23.9441 82.4098 41.5888 85.0531 51.8302 60.3403C60.1347 40.3016 89.4356 78.1287 89.4356 99.9937C89.4356 102.225 87.342 105.173 88.9092 106.648C105.851 122.588 94.1614 132.825 90.4759 143.125C89.6014 145.568 91.4975 148.251 91.4975 150.895C91.4975 151.344 91.4867 151.807 91.4652 152.272L91.4326 152.986L90.8677 152.59C89.7502 151.817 88.7144 150.921 87.7778 149.917C88.7494 152.275 89.2073 154.832 89.1178 157.402C89.0283 159.971 88.3937 162.487 87.2607 164.763C85.4853 168.297 83.7676 170.827 82.1555 172.283C76.9913 176.944 70.3339 179.348 63.5447 179.004C56.7555 178.66 50.3474 175.594 45.6306 170.432H45.6307Z" fill="#E6E6E6"/>
<path d="M73.9947 223.602C74.1101 223.602 74.2217 223.558 74.3088 223.478C74.396 223.398 74.4529 223.288 74.4692 223.167C75.724 211.366 75.799 199.458 74.693 187.64C73.0368 168.997 67.7179 142.144 51.7847 120.091C51.7465 120.038 51.6988 119.994 51.6444 119.96C51.5899 119.927 51.5297 119.905 51.4673 119.896C51.4048 119.887 51.3413 119.891 51.2804 119.908C51.2194 119.925 51.1623 119.955 51.1122 119.995C51.062 120.035 51.0199 120.086 50.9882 120.143C50.9565 120.201 50.9359 120.264 50.9275 120.33C50.919 120.396 50.923 120.463 50.9391 120.527C50.9552 120.591 50.9831 120.651 51.0213 120.704C66.8169 142.568 72.0929 169.223 73.7375 187.735C74.8375 199.473 74.7642 211.302 73.519 223.025C73.5094 223.096 73.5145 223.169 73.534 223.239C73.5535 223.309 73.5869 223.373 73.632 223.428C73.6771 223.482 73.7328 223.526 73.7954 223.556C73.858 223.586 73.9259 223.602 73.9947 223.602V223.602Z" fill="#3F3D56"/>
<path d="M60.9923 151.198C61.0936 151.199 61.1924 151.165 61.2745 151.102C61.3565 151.039 61.4176 150.951 61.449 150.849C61.4803 150.747 61.4804 150.638 61.4491 150.536C61.4178 150.434 61.3568 150.346 61.2748 150.283C56.7347 147.042 51.8302 144.409 46.6741 142.444C38.6186 139.334 26.3691 136.514 13.7585 140.747C13.6985 140.767 13.6428 140.8 13.5946 140.842C13.5464 140.885 13.5068 140.938 13.4778 140.997C13.4489 141.056 13.4312 141.12 13.4259 141.186C13.4206 141.253 13.4277 141.319 13.4468 141.383C13.4659 141.446 13.4966 141.505 13.5373 141.555C13.5779 141.606 13.6276 141.648 13.6836 141.679C13.7396 141.709 13.8007 141.728 13.8635 141.733C13.9263 141.739 13.9895 141.732 14.0495 141.711C26.4018 137.565 38.4292 140.339 46.3441 143.395C51.4173 145.326 56.2432 147.915 60.7105 151.102C60.7924 151.165 60.891 151.199 60.9923 151.198V151.198Z" fill="#3F3D56"/>
<path d="M82.9545 93.5084C82.9619 93.4018 82.9371 93.2955 82.8837 93.2046C82.8302 93.1138 82.7508 93.0431 82.657 93.0028C82.5631 92.9625 82.4595 92.9546 82.3611 92.9802C82.2627 93.0058 82.1745 93.0636 82.1091 93.1453C78.7171 97.6877 75.8737 102.657 73.6444 107.94C70.1228 116.189 66.574 128.872 69.669 142.442C69.6836 142.507 69.7101 142.568 69.7471 142.622C69.7842 142.676 69.8309 142.722 69.8847 142.757C69.9385 142.791 69.9983 142.815 70.0606 142.825C70.1229 142.836 70.1866 142.833 70.248 142.817C70.3094 142.802 70.3672 142.774 70.4182 142.734C70.4693 142.695 70.5125 142.646 70.5453 142.589C70.5782 142.532 70.6002 142.469 70.6099 142.403C70.6196 142.337 70.6169 142.27 70.602 142.206C67.5707 128.913 71.0594 116.461 74.5196 108.355C76.7111 103.158 79.5069 98.2676 82.8428 93.7978C82.9082 93.7162 82.9473 93.6149 82.9545 93.5084Z" fill="#3F3D56"/>
</g>
<defs>
<clipPath id="clip0_36_63">
<rect width="521" height="277" fill="white"/>
</clipPath>
</defs>
</svg>
