<svg id="visual" viewBox="0 0 900 600" width="900" height="600" xmlns="http://www.w3.org/2000/svg" xmlns:xlink="http://www.w3.org/1999/xlink" version="1.1"><rect x="0" y="0" width="900" height="600" fill="#a19cfb"></rect><defs><linearGradient id="grad1_0" x1="33.3%" y1="0%" x2="100%" y2="100%"><stop offset="20%" stop-color="#7676f9" stop-opacity="1"></stop><stop offset="80%" stop-color="#7676f9" stop-opacity="1"></stop></linearGradient></defs><defs><linearGradient id="grad1_1" x1="33.3%" y1="0%" x2="100%" y2="100%"><stop offset="20%" stop-color="#7676f9" stop-opacity="1"></stop><stop offset="80%" stop-color="#7d7bf9" stop-opacity="1"></stop></linearGradient></defs><defs><linearGradient id="grad1_2" x1="33.3%" y1="0%" x2="100%" y2="100%"><stop offset="20%" stop-color="#8381fa" stop-opacity="1"></stop><stop offset="80%" stop-color="#7d7bf9" stop-opacity="1"></stop></linearGradient></defs><defs><linearGradient id="grad1_3" x1="33.3%" y1="0%" x2="100%" y2="100%"><stop offset="20%" stop-color="#8381fa" stop-opacity="1"></stop><stop offset="80%" stop-color="#8986fa" stop-opacity="1"></stop></linearGradient></defs><defs><linearGradient id="grad1_4" x1="33.3%" y1="0%" x2="100%" y2="100%"><stop offset="20%" stop-color="#8f8cfa" stop-opacity="1"></stop><stop offset="80%" stop-color="#8986fa" stop-opacity="1"></stop></linearGradient></defs><defs><linearGradient id="grad1_5" x1="33.3%" y1="0%" x2="100%" y2="100%"><stop offset="20%" stop-color="#8f8cfa" stop-opacity="1"></stop><stop offset="80%" stop-color="#9591fb" stop-opacity="1"></stop></linearGradient></defs><defs><linearGradient id="grad1_6" x1="33.3%" y1="0%" x2="100%" y2="100%"><stop offset="20%" stop-color="#9b97fb" stop-opacity="1"></stop><stop offset="80%" stop-color="#9591fb" stop-opacity="1"></stop></linearGradient></defs><defs><linearGradient id="grad1_7" x1="33.3%" y1="0%" x2="100%" y2="100%"><stop offset="20%" stop-color="#9b97fb" stop-opacity="1"></stop><stop offset="80%" stop-color="#a19cfb" stop-opacity="1"></stop></linearGradient></defs><defs><linearGradient id="grad2_0" x1="0%" y1="0%" x2="66.7%" y2="100%"><stop offset="20%" stop-color="#7676f9" stop-opacity="1"></stop><stop offset="80%" stop-color="#7676f9" stop-opacity="1"></stop></linearGradient></defs><defs><linearGradient id="grad2_1" x1="0%" y1="0%" x2="66.7%" y2="100%"><stop offset="20%" stop-color="#7d7bf9" stop-opacity="1"></stop><stop offset="80%" stop-color="#7676f9" stop-opacity="1"></stop></linearGradient></defs><defs><linearGradient id="grad2_2" x1="0%" y1="0%" x2="66.7%" y2="100%"><stop offset="20%" stop-color="#7d7bf9" stop-opacity="1"></stop><stop offset="80%" stop-color="#8381fa" stop-opacity="1"></stop></linearGradient></defs><defs><linearGradient id="grad2_3" x1="0%" y1="0%" x2="66.7%" y2="100%"><stop offset="20%" stop-color="#8986fa" stop-opacity="1"></stop><stop offset="80%" stop-color="#8381fa" stop-opacity="1"></stop></linearGradient></defs><defs><linearGradient id="grad2_4" x1="0%" y1="0%" x2="66.7%" y2="100%"><stop offset="20%" stop-color="#8986fa" stop-opacity="1"></stop><stop offset="80%" stop-color="#8f8cfa" stop-opacity="1"></stop></linearGradient></defs><defs><linearGradient id="grad2_5" x1="0%" y1="0%" x2="66.7%" y2="100%"><stop offset="20%" stop-color="#9591fb" stop-opacity="1"></stop><stop offset="80%" stop-color="#8f8cfa" stop-opacity="1"></stop></linearGradient></defs><defs><linearGradient id="grad2_6" x1="0%" y1="0%" x2="66.7%" y2="100%"><stop offset="20%" stop-color="#9591fb" stop-opacity="1"></stop><stop offset="80%" stop-color="#9b97fb" stop-opacity="1"></stop></linearGradient></defs><defs><linearGradient id="grad2_7" x1="0%" y1="0%" x2="66.7%" y2="100%"><stop offset="20%" stop-color="#a19cfb" stop-opacity="1"></stop><stop offset="80%" stop-color="#9b97fb" stop-opacity="1"></stop></linearGradient></defs><g transform="translate(900, 0)"><path d="M0 486.7C-46.9 469.8 -93.8 452.9 -143.4 441.3C-193 429.7 -245.3 423.3 -286.1 393.8C-326.9 364.3 -356 311.7 -357.6 259.8C-359.1 208 -333.1 156.9 -350 113.7C-366.9 70.5 -426.8 35.3 -486.7 0L0 0Z" fill="#9e99fb"></path><path d="M0 425.9C-41 411.1 -82 396.3 -125.5 386.1C-168.9 375.9 -214.7 370.4 -250.3 344.6C-286 318.8 -311.5 272.7 -312.9 227.3C-314.2 182 -291.4 137.3 -306.2 99.5C-321 61.7 -373.5 30.9 -425.9 0L0 0Z" fill="#9894fb"></path><path d="M0 365.1C-35.2 352.4 -70.3 339.7 -107.5 331C-144.7 322.2 -184 317.5 -214.6 295.3C-245.1 273.2 -267 233.7 -268.2 194.9C-269.4 156 -249.8 117.7 -262.5 85.3C-275.2 52.9 -320.1 26.5 -365.1 0L0 0Z" fill="#928efa"></path><path d="M0 304.2C-29.3 293.6 -58.6 283.1 -89.6 275.8C-120.6 268.5 -153.3 264.6 -178.8 246.1C-204.3 227.7 -222.5 194.8 -223.5 162.4C-224.5 130 -208.2 98.1 -218.7 71.1C-229.3 44.1 -266.8 22 -304.2 0L0 0Z" fill="#8c89fa"></path><path d="M0 243.4C-23.4 234.9 -46.9 226.5 -71.7 220.6C-96.5 214.8 -122.7 211.6 -143.1 196.9C-163.4 182.1 -178 155.8 -178.8 129.9C-179.6 104 -166.5 78.4 -175 56.9C-183.5 35.3 -213.4 17.6 -243.4 0L0 0Z" fill="#8683fa"></path><path d="M0 182.5C-17.6 176.2 -35.2 169.8 -53.8 165.5C-72.4 161.1 -92 158.7 -107.3 147.7C-122.6 136.6 -133.5 116.9 -134.1 97.4C-134.7 78 -124.9 58.8 -131.2 42.6C-137.6 26.5 -160.1 13.2 -182.5 0L0 0Z" fill="#807efa"></path><path d="M0 121.7C-11.7 117.5 -23.4 113.2 -35.8 110.3C-48.2 107.4 -61.3 105.8 -71.5 98.4C-81.7 91.1 -89 77.9 -89.4 65C-89.8 52 -83.3 39.2 -87.5 28.4C-91.7 17.6 -106.7 8.8 -121.7 0L0 0Z" fill="#7979f9"></path><path d="M0 60.8C-5.9 58.7 -11.7 56.6 -17.9 55.2C-24.1 53.7 -30.7 52.9 -35.8 49.2C-40.9 45.5 -44.5 39 -44.7 32.5C-44.9 26 -41.6 19.6 -43.7 14.2C-45.9 8.8 -53.4 4.4 -60.8 0L0 0Z" fill="#7676f9"></path></g><g transform="translate(0, 600)"><path d="M0 -486.7C45.5 -466.6 91 -446.5 141.5 -435.6C192 -424.7 247.4 -423 286.1 -393.8C324.8 -364.6 346.6 -308 355.2 -258C363.7 -208.1 358.8 -164.9 378.5 -123C398.2 -81.1 442.5 -40.6 486.7 0L0 0Z" fill="#9e99fb"></path><path d="M0 -425.9C39.8 -408.3 79.7 -390.7 123.8 -381.1C168 -371.6 216.5 -370.1 250.3 -344.6C284.2 -319 303.3 -269.5 310.8 -225.8C318.2 -182.1 314 -144.3 331.2 -107.6C348.4 -71 387.2 -35.5 425.9 0L0 0Z" fill="#9894fb"></path><path d="M0 -365.1C34.1 -350 68.3 -334.9 106.1 -326.7C144 -318.5 185.6 -317.2 214.6 -295.3C243.6 -273.5 260 -231 266.4 -193.5C272.8 -156.1 269.1 -123.7 283.9 -92.2C298.7 -60.8 331.9 -30.4 365.1 0L0 0Z" fill="#928efa"></path><path d="M0 -304.2C28.5 -291.6 56.9 -279.1 88.5 -272.2C120 -265.4 154.7 -264.4 178.8 -246.1C203 -227.9 216.7 -192.5 222 -161.3C227.3 -130.1 224.3 -103 236.6 -76.9C248.9 -50.7 276.6 -25.3 304.2 0L0 0Z" fill="#8c89fa"></path><path d="M0 -243.4C22.8 -233.3 45.5 -223.2 70.8 -217.8C96 -212.3 123.7 -211.5 143.1 -196.9C162.4 -182.3 173.3 -154 177.6 -129C181.8 -104.1 179.4 -82.4 189.3 -61.5C199.1 -40.6 221.2 -20.3 243.4 0L0 0Z" fill="#8683fa"></path><path d="M0 -182.5C17.1 -175 34.1 -167.4 53.1 -163.3C72 -159.3 92.8 -158.6 107.3 -147.7C121.8 -136.7 130 -115.5 133.2 -96.8C136.4 -78 134.6 -61.8 141.9 -46.1C149.3 -30.4 165.9 -15.2 182.5 0L0 0Z" fill="#807efa"></path><path d="M0 -121.7C11.4 -116.7 22.8 -111.6 35.4 -108.9C48 -106.2 61.9 -105.7 71.5 -98.4C81.2 -91.2 86.7 -77 88.8 -64.5C90.9 -52 89.7 -41.2 94.6 -30.7C99.6 -20.3 110.6 -10.1 121.7 0L0 0Z" fill="#7979f9"></path><path d="M0 -60.8C5.7 -58.3 11.4 -55.8 17.7 -54.4C24 -53.1 30.9 -52.9 35.8 -49.2C40.6 -45.6 43.3 -38.5 44.4 -32.3C45.5 -26 44.9 -20.6 47.3 -15.4C49.8 -10.1 55.3 -5.1 60.8 0L0 0Z" fill="#7676f9"></path></g></svg>