<svg width="258" height="142" viewBox="0 0 258 142" fill="none" xmlns="http://www.w3.org/2000/svg">
<g clip-path="url(#clip0_36_26)">
<path d="M218.983 94.2718H150.51C145.846 94.2718 141.373 96.1263 138.075 99.4273C134.776 102.728 132.923 107.206 132.923 111.874V141.21H138.441V125.022C138.441 120.354 140.294 115.877 143.592 112.576C146.89 109.275 151.363 107.42 156.028 107.42H213.466C218.13 107.42 222.603 109.275 225.901 112.576C229.199 115.877 231.052 120.354 231.052 125.022V141.21H236.57V111.874C236.57 107.206 234.717 102.728 231.419 99.4273C228.12 96.1263 223.647 94.2718 218.983 94.2718Z" fill="#9E616A"/>
<path d="M199.722 99.005C209.625 99.005 217.653 97.8571 217.653 96.4412C217.653 95.0252 209.625 93.8773 199.722 93.8773C189.819 93.8773 181.791 95.0252 181.791 96.4412C181.791 97.8571 189.819 99.005 199.722 99.005Z" fill="#E6E6E6"/>
<path d="M213.277 97.084H189.394C183.498 91.4286 179.282 85.9783 182.657 81.4541C182.657 80.1536 183.174 78.9064 184.092 77.9868C185.011 77.0672 186.257 76.5506 187.557 76.5506H215.115C216.414 76.5506 217.66 77.0672 218.579 77.9868C219.498 78.9064 220.014 80.1536 220.014 81.4541C221.299 86.6092 219.003 91.8199 213.277 97.084Z" fill="#6C63FF"/>
<path d="M208.988 70.3776C208.762 70.388 208.537 70.3285 208.346 70.207C208.154 70.0856 208.004 69.9081 207.917 69.6986C207.829 69.4891 207.808 69.2578 207.856 69.0359C207.905 68.8141 208.02 68.6124 208.186 68.4583L208.262 68.1567C208.252 68.1325 208.242 68.1084 208.232 68.0842C208.004 67.5445 207.621 67.0844 207.132 66.7616C206.644 66.4388 206.071 66.2677 205.485 66.2699C204.899 66.2721 204.328 66.4474 203.841 66.7738C203.355 67.1003 202.976 67.5632 202.751 68.1046C201.855 70.2654 200.714 72.4298 200.433 74.7145C200.309 75.7243 200.361 76.748 200.587 77.7401C198.482 73.1435 197.389 68.1477 197.382 63.0912C197.381 61.8223 197.452 60.5544 197.593 59.2934C197.709 58.2597 197.871 57.2333 198.078 56.2142C199.206 50.6851 201.629 45.5027 205.147 41.0926C206.85 40.1627 208.227 38.7328 209.092 36.9955C209.406 36.371 209.628 35.7043 209.75 35.0162C209.558 35.0414 209.026 32.1135 209.171 31.9339C208.903 31.5273 208.424 31.3252 208.132 30.9285C206.678 28.9555 204.675 29.3 203.629 31.9812C201.395 33.1097 201.373 34.9812 202.744 36.7811C203.616 37.9263 203.736 39.4758 204.501 40.7018C204.423 40.8026 204.341 40.9004 204.262 41.0012C202.823 42.8533 201.569 44.842 200.517 46.939C200.773 44.5898 200.468 42.2134 199.627 40.0053C198.774 37.9474 197.177 36.2143 195.77 34.4352C194.08 32.2984 190.615 33.2309 190.318 35.9398C190.315 35.966 190.312 35.9922 190.309 36.0184C190.518 36.1364 190.723 36.2616 190.923 36.3941C191.174 36.5622 191.369 36.8025 191.482 37.0833C191.594 37.3641 191.62 37.6725 191.554 37.9679C191.489 38.2634 191.336 38.5322 191.115 38.7391C190.895 38.9461 190.617 39.0814 190.318 39.1275L190.287 39.1323C190.362 39.886 190.493 40.633 190.681 41.3668C188.876 48.3523 192.772 50.8966 198.336 51.0109C198.459 51.0739 198.578 51.1369 198.701 51.1968C197.645 54.1932 196.982 57.3142 196.73 60.4816C196.587 62.3503 196.595 64.2274 196.755 66.0947L196.746 66.0285C196.342 63.9521 195.236 62.0786 193.612 60.7243C191.201 58.7419 187.795 58.0119 185.194 56.4184C184.917 56.2408 184.596 56.1459 184.267 56.1451C183.939 56.1443 183.617 56.2376 183.339 56.4139C183.062 56.5902 182.841 56.8422 182.702 57.1401C182.563 57.4381 182.512 57.7696 182.555 58.0956C182.559 58.1187 182.562 58.1419 182.566 58.1651C182.954 58.3232 183.331 58.5053 183.697 58.7103C183.905 58.8284 184.11 58.9536 184.31 59.086C184.562 59.2542 184.756 59.4944 184.869 59.7752C184.982 60.0561 185.007 60.3644 184.942 60.6599C184.876 60.9553 184.723 61.2241 184.503 61.4311C184.282 61.638 184.004 61.7734 183.705 61.8195L183.674 61.8242C183.652 61.8273 183.634 61.8305 183.612 61.8337C184.274 63.417 185.204 64.8744 186.36 66.1419C187.489 72.24 192.336 72.8186 197.52 71.0428H197.523C198.092 73.5168 198.916 75.925 199.983 78.2285H208.768C208.8 78.1309 208.828 78.03 208.856 77.9323C208.043 77.9834 207.227 77.9348 206.425 77.7873C207.077 76.9868 207.729 76.18 208.381 75.3795C208.395 75.3645 208.409 75.3487 208.422 75.3322C208.752 74.9225 209.086 74.5159 209.417 74.1062L209.417 74.1057C209.434 72.8498 209.291 71.5969 208.988 70.3778L208.988 70.3776Z" fill="#0A4001"/>
<path d="M139.373 97.0215L142.524 94.0199L132.457 80.4276L127.806 84.8575L139.373 97.0215Z" fill="#FFB6B6"/>
<path d="M136.291 95.841L141.039 90.745L143.092 92.9036L151.023 91.6528C151.415 91.591 151.816 91.6561 152.169 91.8387C152.521 92.0212 152.805 92.3117 152.981 92.6676C153.156 93.0235 153.214 93.4263 153.144 93.8171C153.075 94.2079 152.883 94.5663 152.595 94.84L146.602 100.549L143.539 99.3977L145.166 101.917L142.906 104.07L136.291 95.841Z" fill="#2F2E41"/>
<path d="M138.835 86.7775L134.5 92.694C130.831 90.7376 119.121 82.9746 110.151 78.9079C104.354 76.2731 99.8812 74.2694 99.8812 74.2694C99.8812 74.2694 99.2783 75.1253 98.3167 76.4703C94.7974 81.4008 86.486 92.8749 85.6939 92.4489C84.689 91.9085 83.55 92.8749 83.6919 94.855C83.7944 96.2986 81.355 97.3518 80.0229 97.8212C79.5224 97.9947 79.1796 98.0894 79.1796 98.0894C78.951 98.2353 78.7224 98.3813 78.4978 98.5193C71.2032 102.98 62.6553 101.722 56.7833 96.9416C54.6801 95.2433 52.9647 93.1139 51.7527 90.6965C50.5406 88.2791 49.86 85.6299 49.7567 82.9272L49.2326 70.6997L66.9667 69.9108L70.1233 75.9102L75.7234 71.3426L87.9836 61.3437L92.4605 57.6912C92.4605 57.6912 92.3422 57.6754 92.4841 57.139C93.045 56.8348 93.6319 56.5813 94.2378 56.3817C94.3403 56.3462 94.4427 56.3146 94.5452 56.287C100.319 54.583 104.697 59.0165 104.697 59.0165C104.697 59.0165 131.477 77.1414 132.529 77.311C133.582 77.4845 134.187 79.1761 134.313 79.5785C134.435 79.9571 136.112 82.0955 136.864 82.0442C139.213 81.8904 138.835 86.7775 138.835 86.7775Z" fill="#2F2E41"/>
<path d="M85.6706 50.1586C85.1764 50.3228 84.7245 50.5941 84.3471 50.9532C83.9697 51.3123 83.6761 51.7504 83.4874 52.2361L67.2256 52.1466L58.5752 40.1708L52.1452 43.0201L62.6105 61.9985L85.5196 56.8832L85.5061 56.8353C86.0367 57.0417 86.6092 57.1173 87.1751 57.0555C87.741 56.9938 88.2837 56.7967 88.7575 56.4808C89.2312 56.1649 89.622 55.7395 89.8968 55.2405C90.1717 54.7416 90.3225 54.1837 90.3365 53.6141C90.3505 53.0446 90.2274 52.48 89.9774 51.9681C89.7275 51.4562 89.3581 51.012 88.9005 50.6731C88.4429 50.3342 87.9105 50.1105 87.3484 50.021C86.7862 49.9314 86.2107 49.9786 85.6706 50.1586L85.6706 50.1586Z" fill="#FFB6B6"/>
<path d="M55.537 32.0104L55.1993 32.0599C53.4355 32.3166 51.8422 33.2542 50.7606 34.6721C49.6789 36.09 49.1949 37.8754 49.4122 39.646C49.6733 41.7402 49.8254 43.6143 49.5967 43.987C49.0337 44.9045 48.8185 45.6734 49.9229 45.7883C51.0273 45.9032 48.7255 45.2266 52.2441 45.8154C55.7627 46.4041 55.1404 44.5329 58.0068 44.4094C60.8732 44.2858 62.8072 45.0261 63.7101 43.4095C64.6129 41.7928 67.1305 41.7265 65.7478 40.1381C64.365 38.5496 63.9906 39.9215 62.8704 36.5533C62.8592 36.5196 62.8479 36.4861 62.8367 36.4527C62.331 34.9748 61.3237 33.721 59.9901 32.9093C58.6564 32.0977 57.0807 31.7796 55.537 32.0104Z" fill="#6C63FF"/>
<path d="M46.0428 27.8292C45.6246 28.2371 45.1796 28.6166 44.7108 28.9652C44.5729 29.0716 44.4349 29.1703 44.297 29.261C40.297 31.9708 36.3482 30.8111 33.2703 27.983C28.5136 23.6048 25.8417 15.2309 28.3087 10.9788C33.8339 4.23398 41.0063 5.68154 45.365 10.2649C49.5975 14.7102 51.1818 22.1098 46.0428 27.8292Z" fill="#3F3D56"/>
<path d="M63.408 33.4452C63.0691 33.2282 62.7302 33.0192 62.3834 32.818C62.2297 32.609 62.0721 32.4039 61.9105 32.2027L63.408 33.4452Z" fill="#F2F2F2"/>
<path d="M53.7449 15.5535C58.9932 19.5494 64.8379 22.7296 65.9397 27.1271C65.9397 27.1271 65.2797 20.2177 68.3581 21.5274C73.5305 23.7279 71.7804 11.7607 70.33 9.8038C67.9125 6.54233 59.7607 4.68915 59.7607 4.68915L53.9779 7.86644L53.7449 15.5535Z" fill="#2F2E41"/>
<path d="M77.9135 140.357C78.0209 140.67 78.2246 140.941 78.4954 141.131C78.7661 141.321 79.09 141.42 79.4206 141.414L85.8775 141.248C86.2104 141.241 86.5323 141.127 86.7951 140.922C87.0578 140.717 87.2473 140.433 87.3352 140.112L88.2489 130.332C88.5731 130.479 88.926 130.552 89.2819 130.545C89.5912 130.537 89.8961 130.469 90.179 130.344C90.4619 130.218 90.7174 130.038 90.9307 129.814C91.1441 129.589 91.3112 129.325 91.4225 129.036C91.5338 128.747 91.587 128.439 91.5793 128.13C91.5715 127.82 91.5029 127.515 91.3772 127.232C91.2516 126.949 91.0715 126.693 90.8471 126.48C90.6228 126.267 90.3586 126.1 90.0698 125.989C89.7809 125.878 89.473 125.825 89.1637 125.833C89.0214 125.832 88.8796 125.847 88.7405 125.877C88.5893 125.713 88.4054 125.583 88.2008 125.494C87.9962 125.406 87.7754 125.361 87.5525 125.364L77.6203 125.62C77.5379 125.623 77.456 125.634 77.3753 125.651C77.1575 125.691 76.9509 125.778 76.7695 125.906C76.588 126.033 76.4359 126.197 76.3234 126.388C76.2108 126.58 76.1405 126.792 76.117 127.013C76.0936 127.233 76.1177 127.456 76.1876 127.667L77.9135 140.357ZM88.4363 129.668L89.0865 127.338C89.1605 127.069 89.1622 126.785 89.0915 126.515C89.123 126.515 89.1508 126.5 89.1824 126.5C89.6281 126.491 90.0593 126.659 90.3814 126.967C90.7035 127.276 90.8903 127.7 90.9007 128.146C90.9111 128.592 90.7444 129.024 90.4371 129.347C90.1298 129.67 89.7069 129.859 89.2613 129.87C88.973 129.879 88.6878 129.81 88.4363 129.668Z" fill="#1B1919"/>
<path d="M77.3753 125.651C77.5869 126.862 79.966 127.713 82.8266 127.565C85.4571 127.444 87.608 126.519 88.0021 125.424C87.8562 125.38 87.7046 125.36 87.5525 125.364L77.6203 125.62C77.5379 125.623 77.4559 125.634 77.3753 125.651Z" fill="white"/>
<path d="M62.8837 20.4026C67.8897 20.4026 71.9478 16.3409 71.9478 11.3306C71.9478 6.32021 67.8897 2.25851 62.8837 2.25851C57.8778 2.25851 53.8196 6.32021 53.8196 11.3306C53.8196 16.3409 57.8778 20.4026 62.8837 20.4026Z" fill="#FFB6B6"/>
<path d="M59.6194 7.85939L59.2706 9.39271L65.3679 10.782C65.3733 10.4719 65.4427 10.1662 65.5717 9.88425C65.7007 9.60226 65.8866 9.35 66.1177 9.14331C65.9861 9.74454 66.0011 10.3686 66.1614 10.9628C69.4497 12.8096 69.2607 13.4639 71.9184 12.9929C72.2784 13.075 72.6563 13.0105 72.9688 12.8137C73.2814 12.6169 73.503 12.3039 73.585 11.9435C74.6543 7.2424 75.0057 2.43755 70.3317 1.27066C69.1956 0.986349 68.0142 0.931922 66.8568 1.11057C65.6994 1.28921 64.5893 1.69732 63.5916 2.31099C62.5939 2.92466 61.7286 3.73154 61.0465 4.68429C60.3644 5.63705 59.8792 6.71651 59.6194 7.85939Z" fill="#2F2E41"/>
<path d="M105.905 64.8978C105.883 64.872 105.858 64.849 105.83 64.8296C105.763 64.751 105.68 64.6863 105.588 64.6395L104.924 64.2841L100.521 59.3911C100.266 59.2582 99.9696 59.2298 99.6942 59.312L99.6828 59.3154L97.7966 59.8993L96.1743 60.4032L93.9082 61.1062L78.4731 65.8898L68.3273 69.0338C68.053 69.1207 67.8238 69.3119 67.6889 69.5663C67.5541 69.8206 67.5244 70.1178 67.6063 70.3938C67.654 70.5458 67.7329 70.6861 67.838 70.8058L68.1609 71.1654L68.838 71.9205L70.407 75.1747L70.8423 75.661C70.981 75.8158 71.1609 75.9278 71.3609 75.984C71.5609 76.0402 71.7728 76.0382 71.9717 75.9782L105.396 66.6755C105.57 66.6193 105.727 66.5211 105.854 66.3897C105.981 66.2584 106.073 66.0978 106.124 65.9222C106.174 65.7466 106.18 65.5613 106.142 65.3826C106.104 65.204 106.022 65.0375 105.905 64.8978L105.905 64.8978Z" fill="#CCCCCC"/>
<path d="M103.92 16.4983L103.273 16.6033C103.095 16.6328 102.937 16.7313 102.832 16.8773L102.547 17.2765L99.9742 23.7144C99.8695 23.8616 99.8274 24.0444 99.8573 24.2226L100.159 26.0569L99.0196 58.7973C99.0484 58.9666 99.1393 59.1191 99.2744 59.2249L104.269 65.9114L104.385 66.0042L104.637 66.2013C104.766 66.301 104.926 66.3519 105.089 66.3451L105.513 66.3248C105.61 66.3202 105.704 66.2951 105.79 66.2512C105.876 66.2073 105.951 66.1457 106.012 66.0703C106.073 65.9957 106.117 65.9088 106.141 65.8156C106.166 65.7224 106.17 65.625 106.154 65.53L104.705 17.0585C104.675 16.8805 104.577 16.7214 104.43 16.6162C104.284 16.5111 104.101 16.4685 103.924 16.4978L103.92 16.4983Z" fill="#CCCCCC"/>
<path d="M102.836 19.0422L100.558 25.9898L99.6764 53.7396L103.223 56.8951L102.836 19.0422Z" fill="#6C63FF"/>
<path d="M57.5814 22.6464L54.6691 21.2803L51.8016 26.2741C51.8016 26.2741 44.1003 37.2736 43.9886 45.209C43.8769 53.1443 45.2437 55.504 45.2437 55.504C45.2437 55.504 41.9232 57.9887 43.5834 59.5074C45.2437 61.0261 48.9193 61.6815 46.0962 62.3399C43.2732 62.9983 43.9886 69.664 47.1414 70.8473C50.2941 72.0306 67.2259 72.0203 67.2259 72.0203C67.0737 71.5035 67.0625 70.9553 67.1935 70.4327C67.3244 69.9101 67.5928 69.4322 67.9707 69.0484C69.2833 67.7316 70.4655 68.6765 69.2833 66.6263C68.101 64.5761 66.1305 65.7594 67.7069 62.9983C69.2833 60.2373 69.2827 59.4122 69.2827 59.4122C69.2827 59.4122 68.4376 39.9438 63.5972 33.3032L63.7003 33.1205C63.8611 30.9597 63.362 28.801 62.2693 26.9305C61.1765 25.06 59.5417 23.566 57.5814 22.6464Z" fill="#6C63FF"/>
<path d="M61.1107 13.9769C61.4093 12.6673 61.9945 11.4404 62.8242 10.3846C63.6538 9.32885 64.7073 8.47054 65.9086 7.87163C67.1099 7.27272 68.429 6.94815 69.7707 6.92131C71.1125 6.89447 72.4435 7.16604 73.6678 7.71644C73.2437 6.46381 72.3855 5.40457 71.2485 4.73053L64.3854 1.74825C61 0.976907 55.6411 -1.2124 53.1959 0.884149C50.943 2.81014 52.0395 6.58021 49.965 8.69163C47.6915 11.0056 47.4984 13.7416 48.1431 15.3153C48.889 17.1359 50.3813 19.6197 52.2435 20.1573C52.3404 19.5166 52.6598 18.9305 53.1454 18.502C53.0112 19.1127 52.9995 19.7439 53.1111 20.3591L64.3854 29.3588C63.3324 28.4421 62.4353 26.0803 61.8174 23.4201C61.4517 21.8455 59.2695 21.2928 61.0393 18.6204C62.809 15.948 60.8704 15.0334 61.1107 13.9769Z" fill="#2F2E41"/>
<path d="M56.8976 104.696H60.8385V135.857C60.8385 136.38 60.6309 136.881 60.2614 137.251C59.8919 137.621 59.3907 137.829 58.8681 137.829C58.3455 137.829 57.8443 137.621 57.4748 137.251C57.1052 136.881 56.8976 136.38 56.8976 135.857V104.696Z" fill="black"/>
<path d="M45.4607 141.072L50.975 133.752C52.7247 131.43 54.4023 129.015 56.2509 126.774C56.9077 125.978 57.6705 125.155 58.642 124.915C59.0247 124.817 59.4278 124.834 59.8008 124.964C60.2415 125.118 60.648 125.357 60.9978 125.666C61.8104 126.419 62.4921 127.302 63.0151 128.28C63.7035 129.476 64.3398 130.704 64.9325 131.951C66.2752 134.791 67.3672 137.744 68.1961 140.775C68.6004 142.241 70.8823 141.618 70.4762 140.146C69.6555 137.181 68.599 134.287 67.3167 131.491C66.6923 130.126 66.0129 128.788 65.2785 127.477C64.6667 126.313 63.8957 125.24 62.9878 124.29C62.0695 123.318 60.8459 122.692 59.5216 122.516C58.1008 122.361 56.783 123.002 55.728 123.902C54.6682 124.806 53.872 126.002 53.0397 127.107L50.1066 131L43.419 139.878C43.0343 140.389 43.3375 141.201 43.8431 141.497C44.1156 141.648 44.4356 141.688 44.7369 141.609C45.0381 141.53 45.2973 141.338 45.4607 141.072H45.4607Z" fill="#F2F2F2"/>
<path d="M83.3018 62.097C82.781 62.0966 82.2666 62.2112 81.7952 62.4326C81.3238 62.6541 80.9071 62.9769 80.5747 63.3781L65.1735 58.1527L60.7449 44.0555L53.7449 44.7263L57.6858 66.0414L81.0365 68.4298L81.0388 68.3801C81.4771 68.7436 81.9964 68.9962 82.5529 69.1166C83.1093 69.2369 83.6865 69.2214 84.2356 69.0714C84.7848 68.9214 85.2898 68.6413 85.7081 68.2548C86.1263 67.8683 86.4454 67.3867 86.6384 66.8507C86.8315 66.3147 86.8928 65.7401 86.8172 65.1753C86.7416 64.6106 86.5313 64.0724 86.204 63.6062C85.8768 63.14 85.4422 62.7595 84.9371 62.4968C84.4319 62.2342 83.871 62.097 83.3018 62.0971L83.3018 62.097Z" fill="#FFB6B6"/>
<path d="M60.4373 35.3522L60.1013 35.2925C58.3467 34.9785 56.5391 35.3645 55.0654 36.3679C53.5917 37.3713 52.569 38.9123 52.2165 40.661C51.8035 42.7305 51.3563 44.5568 51.0217 44.8381C50.1981 45.5307 49.7512 46.1921 50.7628 46.6503C51.7744 47.1085 49.804 45.7388 52.9567 47.4097C56.1094 49.0807 56.1094 47.1085 58.8681 47.8973C61.6267 48.6862 63.2282 50 64.5949 48.7514C65.9617 47.5029 68.3714 48.2359 67.5606 46.2916C66.7499 44.3474 65.9617 45.5307 65.9617 41.9808C65.9617 41.9453 65.9616 41.9099 65.9615 41.8747C65.9481 40.3125 65.388 38.8045 64.3787 37.6128C63.3694 36.4212 61.9748 35.6213 60.4373 35.3522Z" fill="#6C63FF"/>
<path d="M168.983 102.555C177.58 102.555 184.549 101.407 184.549 99.9911C184.549 98.5751 177.58 97.4272 168.983 97.4272C160.386 97.4272 153.416 98.5751 153.416 99.9911C153.416 101.407 160.386 102.555 168.983 102.555Z" fill="#E6E6E6"/>
<path d="M184.63 85.1838C184.636 88.9484 183.276 92.5872 180.803 95.4238C180.187 96.1354 179.506 96.7884 178.769 97.3743C177.652 98.2727 176.415 99.0112 175.094 99.5685H162.987C161.666 99.0112 160.429 98.2727 159.311 97.3743C158.574 96.7884 157.893 96.1354 157.277 95.4238C156.553 94.5897 155.919 93.6818 155.384 92.7151C154.271 90.6925 153.62 88.4478 153.478 86.143C153.337 83.8381 153.708 81.5305 154.565 79.3866C155.422 77.2427 156.744 75.3159 158.436 73.7453C160.127 72.1747 162.146 70.9994 164.346 70.3041C166.546 69.6089 168.873 69.411 171.159 69.7248C173.444 70.0386 175.632 70.8562 177.564 72.1187C179.496 73.3812 181.124 75.0571 182.33 77.0255C183.536 78.9939 184.291 81.2058 184.54 83.5015C184.601 84.0602 184.631 84.6218 184.63 85.1838Z" fill="#3F3D56"/>
<path d="M180.803 95.4238C180.187 96.1354 179.506 96.7884 178.769 97.3743H159.311C158.574 96.7884 157.893 96.1354 157.277 95.4238H180.803Z" fill="#6C63FF"/>
<path d="M184.54 83.5015C181.283 88.5606 175.288 92.4859 167.99 93.6781C163.773 94.396 159.444 94.0653 155.384 92.715C154.271 90.6925 153.62 88.4478 153.478 86.1429C153.337 83.8381 153.708 81.5305 154.565 79.3866C155.422 77.2427 156.744 75.3159 158.436 73.7453C160.127 72.1747 162.146 70.9994 164.346 70.3041C166.546 69.6089 168.873 69.411 171.159 69.7248C173.444 70.0386 175.632 70.8562 177.564 72.1187C179.496 73.3812 181.124 75.0571 182.33 77.0255C183.536 78.9939 184.291 81.2058 184.54 83.5015Z" fill="#6C63FF"/>
<path d="M133.78 107.332L137.235 104.686L128.682 90.0913L123.584 93.9966L133.78 107.332Z" fill="#FFB6B6"/>
<path d="M130.842 105.828L136.109 101.271L137.919 103.637L145.939 103.245C146.335 103.226 146.727 103.334 147.057 103.553C147.388 103.772 147.64 104.092 147.776 104.464C147.912 104.837 147.926 105.244 147.815 105.625C147.704 106.006 147.475 106.341 147.16 106.583L140.589 111.615L137.667 110.142L139.015 112.821L136.538 114.719L130.842 105.828Z" fill="#2F2E41"/>
<path d="M134.343 97.0894L129.399 102.506C125.961 100.167 115.15 91.192 106.668 86.1859C101.187 82.9439 96.9544 80.4715 96.9544 80.4715C96.9544 80.4715 96.2631 81.2577 95.163 82.4918C91.1356 87.016 81.6425 97.5317 80.9006 97.0231C79.9594 96.3779 78.7235 97.2165 78.6523 99.2003C78.5995 100.647 76.0613 101.432 74.6866 101.755C74.1704 101.874 73.8194 101.932 73.8194 101.932C73.5765 102.052 73.3336 102.173 73.0955 102.286C65.3648 105.938 57.0011 103.769 51.6754 98.3861C49.7663 96.4718 48.289 94.1705 47.343 91.6369C46.3971 89.1034 46.0043 86.3964 46.1912 83.6982L46.9805 71.485L64.6968 72.6045L67.1924 78.9082L73.2496 74.9682L86.5106 66.3431L91.3531 63.1923C91.3531 63.1923 91.2372 63.1639 91.4358 62.6458C92.026 62.4036 92.6367 62.2146 93.2605 62.0811C93.3662 62.0568 93.4715 62.0365 93.5763 62.02C99.499 60.9457 103.377 65.8236 103.377 65.8236C103.377 65.8236 128.06 86.719 129.088 87.0006C130.116 87.2861 130.536 89.0329 130.619 89.4465C130.699 89.836 132.137 92.1421 132.891 92.1719C135.243 92.2711 134.343 97.0894 134.343 97.0894Z" fill="#2F2E41"/>
<path d="M54.5434 110.969C50.835 103.025 23.7924 110.704 22.0151 93.3451C21.5264 88.2923 25.3097 83.926 28.9038 80.3444C54.4685 62.65 4.55288 49.5745 23.9461 32.1049C26.8913 30.388 30.0187 29.0055 33.2703 27.983C37.759 26.6616 41.1088 26.9062 43.6468 28.2867C44.0163 28.4886 44.3718 28.7153 44.7108 28.9651C55.8321 37.1891 49.1049 70.4165 60.7779 80.7349C65.2233 84.2454 84.8845 91.0455 88.0412 96.3467C88.1246 96.4895 88.1996 96.637 88.2658 96.7885C89.3461 98.8692 64.9799 104.537 66.9849 109.41C69.7435 116.116 54.3052 125.892 54.5434 110.969Z" fill="#3F3D56"/>
<path d="M1.35208e-05 141.531C-0.000170153 141.592 0.0118317 141.653 0.035336 141.71C0.0588403 141.767 0.0933749 141.819 0.136962 141.863C0.180549 141.907 0.232333 141.941 0.289316 141.965C0.3463 141.988 0.407368 142 0.469008 142H257.531C257.655 142 257.775 141.951 257.863 141.863C257.951 141.774 258 141.655 258 141.531C258 141.406 257.951 141.287 257.863 141.199C257.775 141.111 257.655 141.061 257.531 141.061H0.468984C0.407347 141.061 0.346272 141.073 0.289292 141.097C0.232312 141.12 0.180546 141.155 0.136962 141.198C0.0933778 141.242 0.0588396 141.294 0.035336 141.351C0.0118324 141.408 -0.000168046 141.469 1.35208e-05 141.531Z" fill="#CCCCCC"/>
<path d="M76.049 69.3574C76.049 71.8626 78.1624 76.6722 65.8026 76.6722C53.4428 76.6722 31.2901 71.8626 31.2901 69.3574C31.2901 66.8522 41.3097 64.8214 53.6695 64.8214C66.0294 64.8214 76.049 66.8522 76.049 69.3574Z" fill="#3F3D56"/>
</g>
<defs>
<clipPath id="clip0_36_26">
<rect width="258" height="142" fill="white"/>
</clipPath>
</defs>
</svg>
