<svg width="277" height="181" viewBox="0 0 277 181" fill="none" xmlns="http://www.w3.org/2000/svg">
<rect width="277" height="181" rx="30" fill="url(#paint0_linear_12_0)"/>
<mask id="mask0_12_0" style="mask-type:alpha" maskUnits="userSpaceOnUse" x="0" y="0" width="277" height="181">
<rect width="277" height="181" rx="30" fill="#ED713C"/>
</mask>
<g mask="url(#mask0_12_0)">
<ellipse opacity="0.1" cx="21.5445" cy="209.527" rx="141.138" ry="111.158" fill="black"/>
<ellipse opacity="0.08" cx="255.456" cy="-28.5272" rx="141.138" ry="111.158" fill="black"/>
</g>
<rect x="25.5016" y="71.8098" width="29.019" height="21.6413" rx="5" fill="url(#paint1_radial_12_0)"/>
<path fill-rule="evenodd" clip-rule="evenodd" d="M40.0111 72.0251L36.7868 77.6807C36.7868 77.6807 38.0765 82.6294 36.7868 86.8711L40.0111 93.2336L43.2355 86.8711C43.2355 86.8711 41.9457 83.3363 43.2355 77.6807C43.2355 77.6807 40.0111 72.0251 40.0111 72.0251Z" stroke="#C7C7B6" stroke-width="1.3" stroke-linejoin="bevel"/>
<path d="M25.5016 77.9406H36.7868" stroke="#C7C7B6" stroke-width="1.3" stroke-linejoin="bevel"/>
<path d="M42.9127 77.9406H54.5203" stroke="#C7C7B6" stroke-width="1.3" stroke-linejoin="bevel"/>
<path d="M25.5016 86.5967H36.7868" stroke="#C7C7B6" stroke-width="1.3" stroke-linejoin="bevel"/>
<path d="M42.9127 86.5967H54.5203" stroke="#C7C7B6" stroke-width="1.3" stroke-linejoin="bevel"/>
<defs>
<linearGradient id="paint0_linear_12_0" x1="139.455" y1="-30.0079" x2="146.841" y2="203.613" gradientUnits="userSpaceOnUse">
<stop stop-color="#9C2CF3"/>
<stop offset="1" stop-color="#3A49F9"/>
</linearGradient>
<radialGradient id="paint1_radial_12_0" cx="0" cy="0" r="1" gradientUnits="userSpaceOnUse" gradientTransform="translate(42.1658 79.693) rotate(138.135) scale(20.6152 20.8386)">
<stop stop-color="white"/>
<stop offset="1" stop-color="#DDDCDA"/>
</radialGradient>
</defs>
</svg>
